<svg width="1em" height="1em" viewBox="0 0 24 24" fill="none" xmlns="http://www.w3.org/2000/svg">
<path d="M12 16.5C13.1935 16.5 14.3381 16.0259 15.182 15.182C16.0259 14.3381 16.5 13.1935 16.5 12C16.5 10.8065 16.0259 9.66193 15.182 8.81802C14.3381 7.97411 13.1935 7.5 12 7.5C10.8065 7.5 9.66193 7.97411 8.81802 8.81802C7.97411 9.66193 7.5 10.8065 7.5 12C7.5 13.1935 7.97411 14.3381 8.81802 15.182C9.66193 16.0259 10.8065 16.5 12 16.5ZM12 18C10.4087 18 8.88258 17.3679 7.75736 16.2426C6.63214 15.1174 6 13.5913 6 12C6 10.4087 6.63214 8.88258 7.75736 7.75736C8.88258 6.63214 10.4087 6 12 6C13.5913 6 15.1174 6.63214 16.2426 7.75736C17.3679 8.88258 18 10.4087 18 12C18 13.5913 17.3679 15.1174 16.2426 16.2426C15.1174 17.3679 13.5913 18 12 18ZM12 1.5C12.1989 1.5 12.3897 1.57902 12.5303 1.71967C12.671 1.86032 12.75 2.05109 12.75 2.25V3.75C12.75 3.94891 12.671 4.13968 12.5303 4.28033C12.3897 4.42098 12.1989 4.5 12 4.5C11.8011 4.5 11.6103 4.42098 11.4697 4.28033C11.329 4.13968 11.25 3.94891 11.25 3.75V2.25C11.25 2.05109 11.329 1.86032 11.4697 1.71967C11.6103 1.57902 11.8011 1.5 12 1.5ZM12 19.5C12.1989 19.5 12.3897 19.579 12.5303 19.7197C12.671 19.8603 12.75 20.0511 12.75 20.25V21.75C12.75 21.9489 12.671 22.1397 12.5303 22.2803C12.3897 22.421 12.1989 22.5 12 22.5C11.8011 22.5 11.6103 22.421 11.4697 22.2803C11.329 22.1397 11.25 21.9489 11.25 21.75V20.25C11.25 20.0511 11.329 19.8603 11.4697 19.7197C11.6103 19.579 11.8011 19.5 12 19.5ZM4.575 4.575C4.71565 4.4344 4.90638 4.35541 5.10525 4.35541C5.30412 4.35541 5.49485 4.4344 5.6355 4.575L6.696 5.6355C6.76763 5.70469 6.82477 5.78744 6.86408 5.87895C6.90338 5.97045 6.92407 6.06886 6.92494 6.16845C6.9258 6.26803 6.90683 6.36679 6.86912 6.45897C6.83141 6.55114 6.77572 6.63488 6.7053 6.7053C6.63488 6.77572 6.55114 6.83141 6.45897 6.86912C6.36679 6.90683 6.26803 6.9258 6.16845 6.92494C6.06886 6.92407 5.97045 6.90338 5.87895 6.86408C5.78744 6.82477 5.70469 6.76763 5.6355 6.696L4.575 5.6355C4.4344 5.49485 4.35541 5.30412 4.35541 5.10525C4.35541 4.90638 4.4344 4.71565 4.575 4.575ZM17.304 17.304C17.4446 17.1634 17.6354 17.0844 17.8342 17.0844C18.0331 17.0844 18.2239 17.1634 18.3645 17.304L19.425 18.3645C19.5616 18.506 19.6372 18.6954 19.6355 18.8921C19.6338 19.0887 19.5549 19.2768 19.4159 19.4159C19.2768 19.5549 19.0887 19.6338 18.8921 19.6355C18.6954 19.6372 18.506 19.5616 18.3645 19.425L17.304 18.3645C17.1634 18.2239 17.0844 18.0331 17.0844 17.8342C17.0844 17.6354 17.1634 17.4446 17.304 17.304ZM1.5 12C1.5 11.8011 1.57902 11.6103 1.71967 11.4697C1.86032 11.329 2.05109 11.25 2.25 11.25H3.75C3.94891 11.25 4.13968 11.329 4.28033 11.4697C4.42098 11.6103 4.5 11.8011 4.5 12C4.5 12.1989 4.42098 12.3897 4.28033 12.5303C4.13968 12.671 3.94891 12.75 3.75 12.75H2.25C2.05109 12.75 1.86032 12.671 1.71967 12.5303C1.57902 12.3897 1.5 12.1989 1.5 12ZM19.5 12C19.5 11.8011 19.579 11.6103 19.7197 11.4697C19.8603 11.329 20.0511 11.25 20.25 11.25H21.75C21.9489 11.25 22.1397 11.329 22.2803 11.4697C22.421 11.6103 22.5 11.8011 22.5 12C22.5 12.1989 22.421 12.3897 22.2803 12.5303C22.1397 12.671 21.9489 12.75 21.75 12.75H20.25C20.0511 12.75 19.8603 12.671 19.7197 12.5303C19.579 12.3897 19.5 12.1989 19.5 12ZM4.575 19.425C4.4344 19.2844 4.35541 19.0936 4.35541 18.8948C4.35541 18.6959 4.4344 18.5051 4.575 18.3645L5.6355 17.304C5.77695 17.1674 5.9664 17.0918 6.16305 17.0935C6.3597 17.0952 6.54781 17.1741 6.68686 17.3131C6.82592 17.4522 6.9048 17.6403 6.90651 17.8369C6.90821 18.0336 6.83262 18.223 6.696 18.3645L5.6355 19.425C5.49485 19.5656 5.30412 19.6446 5.10525 19.6446C4.90638 19.6446 4.71565 19.5656 4.575 19.425ZM17.304 6.696C17.1634 6.55535 17.0844 6.36462 17.0844 6.16575C17.0844 5.96688 17.1634 5.77615 17.304 5.6355L18.3645 4.575C18.506 4.43838 18.6954 4.36279 18.8921 4.36449C19.0887 4.3662 19.2768 4.44508 19.4159 4.58414C19.5549 4.72319 19.6338 4.9113 19.6355 5.10795C19.6372 5.3046 19.5616 5.49405 19.425 5.6355L18.3645 6.696C18.2239 6.8366 18.0331 6.91559 17.8342 6.91559C17.6354 6.91559 17.4446 6.8366 17.304 6.696Z" fill="currentColor"/>
</svg>
