<svg width="24" height="24" viewBox="0 0 24 24" fill="none" class="ah">
  <path
    d="M19.1 8.03c.02.17.02.34.02.5 0 5.24-3.69 11.28-10.43 11.28-2 0-3.94-.62-5.62-1.78a6.9 6.9 0 0 0 5.43-1.64 3.72 3.72 0 0 1-3.43-2.75c.55.11 1.12.09 1.66-.07a3.9 3.9 0 0 1-2.94-3.88v-.05c.5.3 1.08.47 1.66.5a4.16 4.16 0 0 1-1.13-5.3 10.16 10.16 0 0 0 7.55 4.14c-.3-1.37.1-2.82 1.06-3.78a3.48 3.48 0 0 1 5.19.17c.82-.18 1.6-.5 2.32-.96-.27.91-.84 1.7-1.6 2.19.72-.1 1.43-.3 2.1-.63a7.8 7.8 0 0 1-1.83 2.06z"
    fill="#1D9BF0"
  ></path>
</svg>
